<?xml version="1.0" encoding="UTF-8"?>
<svg width="40px" height="40px" version="1.1" viewBox="0 0 700 700" xmlns="http://www.w3.org/2000/svg">
 <path d="m574 22.398h-448c-14.852 0.007812-29.09 5.9102-39.594 16.41-10.5 10.5-16.402 24.742-16.406 39.59v403.2c0.003906 14.848 5.9062 29.09 16.406 39.59 10.504 10.5 24.742 16.402 39.594 16.41h448c14.852-0.007812 29.09-5.9102 39.594-16.41 10.5-10.5 16.402-24.742 16.406-39.59v-403.2c-0.003906-14.848-5.9062-29.09-16.406-39.59-10.504-10.5-24.742-16.402-39.594-16.41zm33.602 356.39-136.41-194.88-0.003906-0.003906c-2.0391-2.9375-5.3828-4.6914-8.9609-4.7031-3.4883-0.058594-6.8008 1.5156-8.957 4.2578l-148.29 190.4-80.641-100.8c-2.0078-2.6797-5.1602-4.2578-8.5117-4.2539-3.3008 0.058594-6.4453 1.4297-8.7344 3.8086l-114.69 133.73v-327.94c-0.011719-8.9141 3.5273-17.465 9.8281-23.77 6.3047-6.3047 14.859-9.8398 23.773-9.8281h448c8.9141-0.011719 17.469 3.5234 23.773 9.8281 6.3008 6.3047 9.8398 14.855 9.8281 23.77zm-358.4-221.98c0 11.883-4.7188 23.277-13.121 31.676-8.4023 8.4023-19.797 13.125-31.68 13.125-11.879 0-23.273-4.7227-31.676-13.125-8.4023-8.3984-13.121-19.793-13.121-31.676 0-11.883 4.7188-23.277 13.121-31.68s19.797-13.121 31.676-13.121c11.879 0.011719 23.27 4.7344 31.668 13.133 8.3984 8.4023 13.121 19.789 13.133 31.668z"/>
</svg>
