<?xml version="1.0" encoding="UTF-8"?>
<svg width="40px" height="40px" version="1.1" viewBox="0 0 700 700" xmlns="http://www.w3.org/2000/svg">
 <g>
  <path d="m383.37 350h-210.7c-42.465 0-69.531-45.5-49-82.832l54.367-98.934 50.867-92.633c21.234-38.5 76.766-38.5 98 0l51.102 92.633 24.5 44.566 29.863 54.367c20.535 37.332-6.5312 82.832-49 82.832z"/>
  <path d="m598.5 373.33c0 83.77-67.898 151.67-151.67 151.67-71.164 0-130.66-48.766-147.23-115.04-1.6328-7 3.7305-13.297 10.965-13.297h87.969c32.43 0 61.832-16.801 78.398-44.566 16.332-28 17.031-61.602 1.168-90.066l-11.668-21.469c-4.4336-7.9336 1.8672-17.5 10.734-15.867 69.066 14 121.33 75.133 121.33 148.63z"/>
 </g>
</svg>
