<?xml version="1.0" encoding="UTF-8"?>
<svg width="40px" height="40px" version="1.1" viewBox="0 0 700 700" xmlns="http://www.w3.org/2000/svg">
 <path d="m560 46.668h-420c-6.1875 0-12.125 2.457-16.5 6.832s-6.832 10.312-6.832 16.5v420c0 6.1875 2.457 12.125 6.832 16.5s10.312 6.832 16.5 6.832h420c6.1875 0 12.125-2.457 16.5-6.832s6.832-10.312 6.832-16.5v-420c0-6.1875-2.457-12.125-6.832-16.5s-10.312-6.832-16.5-6.832zm-71.398 143.73c0 8.3359-4.4492 16.039-11.668 20.207s-16.113 4.168-23.332 0c-7.2227-4.168-11.668-11.871-11.668-20.207v-2.332h-68.602v183.87h19.133c8.3398 0 16.039 4.4453 20.211 11.668 4.168 7.2188 4.168 16.113 0 23.332-4.1719 7.2188-11.871 11.668-20.211 11.668h-84.93c-8.3398 0-16.039-4.4492-20.211-11.668-4.168-7.2188-4.168-16.113 0-23.332 4.1719-7.2227 11.871-11.668 20.211-11.668h19.133v-183.87h-68.602v2.332c0 8.3359-4.4453 16.039-11.668 20.207-7.2188 4.168-16.113 4.168-23.332 0s-11.668-11.871-11.668-20.207v-25.664c0-6.1875 2.4609-12.125 6.8359-16.5s10.312-6.8359 16.5-6.8359h230.54-0.003906c6.1875 0 12.125 2.4609 16.5 6.8359s6.8359 10.312 6.8359 16.5z"/>
</svg>
